<svg width="212" height="152" viewBox="0 0 212 152" fill="none" xmlns="http://www.w3.org/2000/svg">
<rect x="0.5" y="0.5" width="211" height="151" rx="3.5" fill="white" fill-opacity="0.3" stroke="#01A768"/>
<mask id="path-2-inside-1_62_1894" fill="white">
<path d="M0 4C0 1.79086 1.79086 0 4 0H208C210.209 0 212 1.79086 212 4V125H0V4Z"/>
</mask>
<path d="M0 4C0 1.79086 1.79086 0 4 0H208C210.209 0 212 1.79086 212 4V125H0V4Z" fill="white"/>
<path d="M-1 4C-1 1.23858 1.23858 -1 4 -1H208C210.761 -1 213 1.23858 213 4H211C211 2.34315 209.657 1 208 1H4C2.34315 1 1 2.34315 1 4H-1ZM212 125H0H212ZM-1 125V4C-1 1.23858 1.23858 -1 4 -1V1C2.34315 1 1 2.34315 1 4V125H-1ZM208 -1C210.761 -1 213 1.23858 213 4V125H211V4C211 2.34315 209.657 1 208 1V-1Z" fill="#01A768" mask="url(#path-2-inside-1_62_1894)"/>
<path d="M65.1533 97.012H61.0793L60.3793 99H58.7133L62.1993 89.256H64.0473L67.5333 99H65.8533L65.1533 97.012ZM64.7053 95.71L63.1233 91.188L61.5273 95.71H64.7053ZM68.517 95.108C68.517 94.3333 68.6757 93.6473 68.993 93.05C69.3197 92.4527 69.7584 91.9907 70.309 91.664C70.869 91.328 71.4897 91.16 72.171 91.16C72.675 91.16 73.1697 91.272 73.655 91.496C74.1497 91.7107 74.5417 92 74.831 92.364V88.64H76.441V99H74.831V97.838C74.5697 98.2113 74.2057 98.5193 73.739 98.762C73.2817 99.0047 72.7544 99.126 72.157 99.126C71.485 99.126 70.869 98.958 70.309 98.622C69.7584 98.2767 69.3197 97.8007 68.993 97.194C68.6757 96.578 68.517 95.8827 68.517 95.108ZM74.831 95.136C74.831 94.604 74.719 94.142 74.495 93.75C74.2804 93.358 73.9957 93.0593 73.641 92.854C73.2864 92.6487 72.9037 92.546 72.493 92.546C72.0824 92.546 71.6997 92.6487 71.345 92.854C70.9904 93.05 70.701 93.344 70.477 93.736C70.2624 94.1187 70.155 94.576 70.155 95.108C70.155 95.64 70.2624 96.1067 70.477 96.508C70.701 96.9093 70.9904 97.2173 71.345 97.432C71.709 97.6373 72.0917 97.74 72.493 97.74C72.9037 97.74 73.2864 97.6373 73.641 97.432C73.9957 97.2267 74.2804 96.928 74.495 96.536C74.719 96.1347 74.831 95.668 74.831 95.136ZM78.0053 95.108C78.0053 94.3333 78.164 93.6473 78.4813 93.05C78.808 92.4527 79.2466 91.9907 79.7973 91.664C80.3573 91.328 80.978 91.16 81.6593 91.16C82.1633 91.16 82.658 91.272 83.1433 91.496C83.638 91.7107 84.03 92 84.3193 92.364V88.64H85.9293V99H84.3193V97.838C84.058 98.2113 83.694 98.5193 83.2273 98.762C82.77 99.0047 82.2426 99.126 81.6453 99.126C80.9733 99.126 80.3573 98.958 79.7973 98.622C79.2466 98.2767 78.808 97.8007 78.4813 97.194C78.164 96.578 78.0053 95.8827 78.0053 95.108ZM84.3193 95.136C84.3193 94.604 84.2073 94.142 83.9833 93.75C83.7686 93.358 83.484 93.0593 83.1293 92.854C82.7746 92.6487 82.392 92.546 81.9813 92.546C81.5706 92.546 81.188 92.6487 80.8333 92.854C80.4786 93.05 80.1893 93.344 79.9653 93.736C79.7506 94.1187 79.6433 94.576 79.6433 95.108C79.6433 95.64 79.7506 96.1067 79.9653 96.508C80.1893 96.9093 80.4786 97.2173 80.8333 97.432C81.1973 97.6373 81.58 97.74 81.9813 97.74C82.392 97.74 82.7746 97.6373 83.1293 97.432C83.484 97.2267 83.7686 96.928 83.9833 96.536C84.2073 96.1347 84.3193 95.668 84.3193 95.136ZM99.6563 99H98.0603L93.2583 91.734V99H91.6623V89.256H93.2583L98.0603 96.508V89.256H99.6563V99ZM108.822 94.954C108.822 95.2433 108.803 95.5047 108.766 95.738H102.872C102.919 96.354 103.147 96.8487 103.558 97.222C103.969 97.5953 104.473 97.782 105.07 97.782C105.929 97.782 106.535 97.4227 106.89 96.704H108.612C108.379 97.4133 107.954 97.9967 107.338 98.454C106.731 98.902 105.975 99.126 105.07 99.126C104.333 99.126 103.67 98.9627 103.082 98.636C102.503 98.3 102.046 97.8333 101.71 97.236C101.383 96.6293 101.22 95.9293 101.22 95.136C101.22 94.3427 101.379 93.6473 101.696 93.05C102.023 92.4433 102.475 91.9767 103.054 91.65C103.642 91.3233 104.314 91.16 105.07 91.16C105.798 91.16 106.447 91.3187 107.016 91.636C107.585 91.9533 108.029 92.4013 108.346 92.98C108.663 93.5493 108.822 94.2073 108.822 94.954ZM107.156 94.45C107.147 93.862 106.937 93.3907 106.526 93.036C106.115 92.6813 105.607 92.504 105 92.504C104.449 92.504 103.978 92.6813 103.586 93.036C103.194 93.3813 102.961 93.8527 102.886 94.45H107.156ZM120.753 91.286L118.359 99H116.679L115.125 93.302L113.571 99H111.891L109.483 91.286H111.107L112.717 97.488L114.355 91.286H116.021L117.589 97.46L119.185 91.286H120.753ZM131.868 89.27V90.572H129.278V99H127.682V90.572H125.078V89.27H131.868ZM140.555 94.954C140.555 95.2433 140.536 95.5047 140.499 95.738H134.605C134.651 96.354 134.88 96.8487 135.291 97.222C135.701 97.5953 136.205 97.782 136.803 97.782C137.661 97.782 138.268 97.4227 138.623 96.704H140.345C140.111 97.4133 139.687 97.9967 139.071 98.454C138.464 98.902 137.708 99.126 136.803 99.126C136.065 99.126 135.403 98.9627 134.815 98.636C134.236 98.3 133.779 97.8333 133.443 97.236C133.116 96.6293 132.953 95.9293 132.953 95.136C132.953 94.3427 133.111 93.6473 133.429 93.05C133.755 92.4433 134.208 91.9767 134.787 91.65C135.375 91.3233 136.047 91.16 136.803 91.16C137.531 91.16 138.179 91.3187 138.749 91.636C139.318 91.9533 139.761 92.4013 140.079 92.98C140.396 93.5493 140.555 94.2073 140.555 94.954ZM138.889 94.45C138.879 93.862 138.669 93.3907 138.259 93.036C137.848 92.6813 137.339 92.504 136.733 92.504C136.182 92.504 135.711 92.6813 135.319 93.036C134.927 93.3813 134.693 93.8527 134.619 94.45H138.889ZM144.925 99.126C144.319 99.126 143.773 99.0187 143.287 98.804C142.811 98.58 142.433 98.2813 142.153 97.908C141.873 97.5253 141.724 97.1007 141.705 96.634H143.357C143.385 96.9607 143.539 97.236 143.819 97.46C144.109 97.6747 144.468 97.782 144.897 97.782C145.345 97.782 145.691 97.698 145.933 97.53C146.185 97.3527 146.311 97.1287 146.311 96.858C146.311 96.5687 146.171 96.354 145.891 96.214C145.621 96.074 145.187 95.92 144.589 95.752C144.011 95.5933 143.539 95.4393 143.175 95.29C142.811 95.1407 142.494 94.912 142.223 94.604C141.962 94.296 141.831 93.89 141.831 93.386C141.831 92.9753 141.953 92.602 142.195 92.266C142.438 91.9207 142.783 91.65 143.231 91.454C143.689 91.258 144.211 91.16 144.799 91.16C145.677 91.16 146.381 91.384 146.913 91.832C147.455 92.2707 147.744 92.8727 147.781 93.638H146.185C146.157 93.2927 146.017 93.0173 145.765 92.812C145.513 92.6067 145.173 92.504 144.743 92.504C144.323 92.504 144.001 92.5833 143.777 92.742C143.553 92.9007 143.441 93.1107 143.441 93.372C143.441 93.5773 143.516 93.75 143.665 93.89C143.815 94.03 143.997 94.142 144.211 94.226C144.426 94.3007 144.743 94.3987 145.163 94.52C145.723 94.6693 146.181 94.8233 146.535 94.982C146.899 95.1313 147.212 95.3553 147.473 95.654C147.735 95.9527 147.87 96.3493 147.879 96.844C147.879 97.2827 147.758 97.6747 147.515 98.02C147.273 98.3653 146.927 98.636 146.479 98.832C146.041 99.028 145.523 99.126 144.925 99.126ZM151.466 92.588V96.858C151.466 97.1473 151.531 97.3573 151.662 97.488C151.802 97.6093 152.035 97.67 152.362 97.67H153.342V99H152.082C151.363 99 150.812 98.832 150.43 98.496C150.047 98.16 149.856 97.614 149.856 96.858V92.588H148.946V91.286H149.856V89.368H151.466V91.286H153.342V92.588H151.466Z" fill="#1D242E"/>
<g clip-path="url(#clip0_62_1894)">
<path d="M104.188 64.0416H100.334V59.4166H104.188V55.5624H108.813V59.4166H112.667V64.0416H108.813V67.8958H104.188V64.0416ZM106.5 47.0833L94.167 51.7083V61.097C94.167 68.8824 99.4241 76.1437 106.5 77.9166C113.577 76.1437 118.834 68.8824 118.834 61.097V51.7083L106.5 47.0833ZM115.75 61.097C115.75 67.2637 111.819 72.9678 106.5 74.7099C101.182 72.9678 97.2503 67.2791 97.2503 61.097V53.8512L106.5 50.3824L115.75 53.8512V61.097Z" fill="#01A768"/>
</g>
<defs>
<clipPath id="clip0_62_1894">
<rect width="37" height="37" fill="white" transform="translate(88 44)"/>
</clipPath>
</defs>
</svg>
