<svg width="212" height="152" viewBox="0 0 212 152" fill="none" xmlns="http://www.w3.org/2000/svg">
<rect x="0.5" y="0.5" width="211" height="151" rx="3.5" fill="#03A9F5" fill-opacity="0.3" stroke="#03A9F5"/>
<path d="M0.5 4C0.5 2.067 2.067 0.5 4 0.5H208C209.933 0.5 211.5 2.067 211.5 4V124.5H0.5V4Z" fill="white" stroke="#03A9F5"/>
<path d="M36.4963 104H38.0923V97.336L41.0743 104H42.1803L45.1483 97.336V104H46.7443V94.27H45.0363L41.6343 101.9L38.2183 94.27H36.4963V104ZM52.09 97.504C53.28 97.504 54.218 98.26 54.246 99.45H49.976C50.144 98.232 51.012 97.504 52.09 97.504ZM55.702 101.704H53.98C53.686 102.306 53.14 102.782 52.16 102.782C50.984 102.782 50.074 102.012 49.962 100.738H55.856C55.898 100.472 55.912 100.22 55.912 99.954C55.912 97.686 54.358 96.16 52.16 96.16C49.878 96.16 48.31 97.714 48.31 100.136C48.31 102.558 49.948 104.126 52.16 104.126C54.05 104.126 55.268 103.048 55.702 101.704ZM56.9506 100.108C56.9506 102.488 58.5606 104.126 60.5906 104.126C61.8506 104.126 62.7746 103.538 63.2646 102.838V104H64.8746V93.64H63.2646V97.364C62.6766 96.636 61.6126 96.16 60.6046 96.16C58.5606 96.16 56.9506 97.728 56.9506 100.108ZM63.2646 100.136C63.2646 101.802 62.1306 102.74 60.9266 102.74C59.7366 102.74 58.5886 101.774 58.5886 100.108C58.5886 98.442 59.7366 97.546 60.9266 97.546C62.1306 97.546 63.2646 98.484 63.2646 100.136ZM66.9709 104H68.5669V96.286H66.9709V104ZM67.7829 95.264C68.3429 95.264 68.7909 94.816 68.7909 94.242C68.7909 93.668 68.3429 93.22 67.7829 93.22C67.2089 93.22 66.7609 93.668 66.7609 94.242C66.7609 94.816 67.2089 95.264 67.7829 95.264ZM70.1303 100.136C70.1303 102.558 71.6983 104.126 73.9103 104.126C75.8003 104.126 77.0323 103.076 77.4663 101.564H75.7443C75.4503 102.362 74.8623 102.782 73.9103 102.782C72.6223 102.782 71.7683 101.83 71.7683 100.136C71.7683 98.456 72.6223 97.504 73.9103 97.504C74.8623 97.504 75.4783 97.98 75.7443 98.722H77.4663C77.0323 97.098 75.8003 96.16 73.9103 96.16C71.6983 96.16 70.1303 97.728 70.1303 100.136ZM79.0568 104H80.6528V96.286H79.0568V104ZM79.8688 95.264C80.4288 95.264 80.8768 94.816 80.8768 94.242C80.8768 93.668 80.4288 93.22 79.8688 93.22C79.2948 93.22 78.8468 93.668 78.8468 94.242C78.8468 94.816 79.2948 95.264 79.8688 95.264ZM88.2222 104H89.8042V99.45C89.8042 97.294 88.4462 96.16 86.6402 96.16C85.7162 96.16 84.8622 96.538 84.3442 97.168V96.286H82.7482V104H84.3442V99.688C84.3442 98.274 85.1142 97.546 86.2902 97.546C87.4522 97.546 88.2222 98.274 88.2222 99.688V104ZM95.088 97.504C96.278 97.504 97.216 98.26 97.244 99.45H92.974C93.142 98.232 94.01 97.504 95.088 97.504ZM98.7 101.704H96.978C96.684 102.306 96.138 102.782 95.158 102.782C93.982 102.782 93.072 102.012 92.96 100.738H98.854C98.896 100.472 98.91 100.22 98.91 99.954C98.91 97.686 97.356 96.16 95.158 96.16C92.876 96.16 91.308 97.714 91.308 100.136C91.308 102.558 92.946 104.126 95.158 104.126C97.048 104.126 98.266 103.048 98.7 101.704ZM106.235 101.844C106.151 99.058 101.797 99.926 101.797 98.372C101.797 97.854 102.245 97.504 103.099 97.504C103.967 97.504 104.485 97.966 104.541 98.638H106.137C106.053 97.098 104.905 96.16 103.155 96.16C101.335 96.16 100.187 97.154 100.187 98.386C100.187 101.214 104.667 100.346 104.667 101.858C104.667 102.39 104.177 102.782 103.253 102.782C102.371 102.782 101.769 102.264 101.713 101.634H100.061C100.131 103.034 101.433 104.126 103.281 104.126C105.101 104.126 106.235 103.146 106.235 101.844ZM118.162 104H119.842L116.356 94.256H114.508L111.022 104H112.688L113.388 102.012H117.462L118.162 104ZM117.014 100.71H113.836L115.432 96.188L117.014 100.71ZM120.448 96.286L123.374 104H125.278L128.218 96.286H126.524L124.34 102.572L122.156 96.286H120.448ZM128.892 100.108C128.892 102.488 130.502 104.126 132.504 104.126C133.792 104.126 134.716 103.51 135.206 102.852V104H136.816V96.286H135.206V97.406C134.73 96.776 133.834 96.16 132.532 96.16C130.502 96.16 128.892 97.728 128.892 100.108ZM135.206 100.136C135.206 101.802 134.072 102.74 132.868 102.74C131.678 102.74 130.53 101.774 130.53 100.108C130.53 98.442 131.678 97.546 132.868 97.546C134.072 97.546 135.206 98.484 135.206 100.136ZM138.912 104H140.508V96.286H138.912V104ZM139.724 95.264C140.284 95.264 140.732 94.816 140.732 94.242C140.732 93.668 140.284 93.22 139.724 93.22C139.15 93.22 138.702 93.668 138.702 94.242C138.702 94.816 139.15 95.264 139.724 95.264ZM142.604 104H144.2V93.64H142.604V104ZM145.763 100.108C145.763 102.488 147.373 104.126 149.375 104.126C150.663 104.126 151.587 103.51 152.077 102.852V104H153.687V96.286H152.077V97.406C151.601 96.776 150.705 96.16 149.403 96.16C147.373 96.16 145.763 97.728 145.763 100.108ZM152.077 100.136C152.077 101.802 150.943 102.74 149.739 102.74C148.549 102.74 147.401 101.774 147.401 100.108C147.401 98.442 148.549 97.546 149.739 97.546C150.943 97.546 152.077 98.484 152.077 100.136ZM157.379 97.434V93.64H155.783V104H157.379V102.88C157.883 103.552 158.793 104.126 160.067 104.126C162.097 104.126 163.693 102.488 163.693 100.108C163.693 97.728 162.111 96.16 160.067 96.16C158.849 96.16 157.883 96.734 157.379 97.434ZM162.069 100.108C162.069 101.774 160.921 102.74 159.717 102.74C158.527 102.74 157.379 101.802 157.379 100.136C157.379 98.484 158.527 97.546 159.717 97.546C160.921 97.546 162.069 98.442 162.069 100.108ZM165.272 104H166.868V93.64H165.272V104ZM172.211 97.504C173.401 97.504 174.339 98.26 174.367 99.45H170.097C170.265 98.232 171.133 97.504 172.211 97.504ZM175.823 101.704H174.101C173.807 102.306 173.261 102.782 172.281 102.782C171.105 102.782 170.195 102.012 170.083 100.738H175.977C176.019 100.472 176.033 100.22 176.033 99.954C176.033 97.686 174.479 96.16 172.281 96.16C169.999 96.16 168.431 97.714 168.431 100.136C168.431 102.558 170.069 104.126 172.281 104.126C174.171 104.126 175.389 103.048 175.823 101.704Z" fill="#1D242E"/>
<path d="M88.9304 79.8H98.9704V77.02H93.5704C95.8904 75.24 98.7504 72.68 98.7504 69.48C98.7504 67.02 97.2704 65.08 93.9504 65.08C91.2904 65.08 88.9904 66.6 88.8904 70.14H92.1904C92.1904 68.76 92.7904 67.96 93.8104 67.96C94.8504 67.96 95.3304 68.64 95.3304 69.7C95.3304 72.16 92.0304 74.7 88.9304 77.26V79.8ZM100.996 75.72C101.156 77.96 102.696 80.06 105.876 80.06C109.796 80.06 110.956 77.3 110.956 72.32C110.956 67.88 109.796 65.06 105.636 65.06C102.536 65.06 100.616 66.98 100.616 69.94C100.616 73.04 102.536 74.6 105.036 74.6C106.276 74.6 107.356 74.12 107.936 73.3C107.936 76.08 107.436 77.3 105.996 77.3C104.936 77.3 104.356 76.74 104.156 75.72H100.996ZM105.816 71.9C104.476 71.9 103.836 71.08 103.836 69.98C103.836 68.76 104.556 68 105.736 68C106.896 68 107.656 68.7 107.656 70C107.656 71.18 106.936 71.9 105.816 71.9ZM115.181 72.16C113.781 72.82 112.961 74.06 112.961 75.72C112.961 78.64 115.381 80.28 118.361 80.28C121.341 80.28 123.761 78.64 123.761 75.72C123.761 74.06 122.941 72.84 121.521 72.16C122.621 71.58 123.401 70.52 123.401 69.02C123.401 66.94 121.801 65.1 118.361 65.1C114.921 65.1 113.301 66.94 113.301 69.02C113.301 70.56 114.061 71.56 115.181 72.16ZM118.361 71.24C117.381 71.24 116.641 70.62 116.641 69.56C116.641 68.44 117.341 67.82 118.361 67.82C119.381 67.82 120.081 68.44 120.081 69.54C120.081 70.6 119.341 71.24 118.361 71.24ZM118.361 73.64C119.581 73.64 120.421 74.36 120.421 75.56C120.421 76.64 119.661 77.48 118.361 77.48C117.041 77.48 116.261 76.66 116.261 75.56C116.261 74.32 117.141 73.64 118.361 73.64Z" fill="#1D242E"/>
<path d="M64.9076 140.848L62.2796 133.636H61.1156L64.2716 142H65.5316L68.6876 133.636H67.5356L64.9076 140.848ZM69.8849 142H70.9769V135.424H69.8849V142ZM70.4489 134.356C70.8449 134.356 71.1689 134.032 71.1689 133.612C71.1689 133.192 70.8449 132.868 70.4489 132.868C70.0289 132.868 69.7049 133.192 69.7049 133.612C69.7049 134.032 70.0289 134.356 70.4489 134.356ZM75.6341 136.24C76.7621 136.24 77.7221 136.948 77.7101 138.232H73.5581C73.6781 136.948 74.5661 136.24 75.6341 136.24ZM78.7061 139.972H77.5301C77.2901 140.68 76.6661 141.184 75.6821 141.184C74.5661 141.184 73.6301 140.452 73.5461 139.12H78.8021C78.8261 138.892 78.8381 138.7 78.8381 138.46C78.8381 136.66 77.5901 135.316 75.6821 135.316C73.7621 135.316 72.4301 136.624 72.4301 138.7C72.4301 140.788 73.8101 142.108 75.6821 142.108C77.3141 142.108 78.3701 141.172 78.7061 139.972ZM81.5635 142H82.6915L84.2755 136.78L85.8595 142H86.9875L89.0395 135.424H87.9595L86.4715 140.956L84.8755 135.424H83.7595L82.1275 140.944L80.6155 135.424H79.4995L81.5635 142ZM93.3224 142H94.4144V138.232H97.3664V137.344H94.4144V134.524H98.0504V133.636H93.3224V142ZM105.201 135.424H104.109V139.036C104.109 140.452 103.353 141.148 102.225 141.148C101.121 141.148 100.389 140.464 100.389 139.132V135.424H99.3093V139.276C99.3093 141.16 100.497 142.096 102.009 142.096C102.885 142.096 103.689 141.712 104.109 141.028V142H105.201V135.424ZM107.045 142H108.137V133.12H107.045V142ZM109.998 142H111.09V133.12H109.998V142ZM116.151 133.636V142H120.171V141.112H117.243V133.636H116.151ZM121.33 142H122.422V135.424H121.33V142ZM121.894 134.356C122.29 134.356 122.614 134.032 122.614 133.612C122.614 133.192 122.29 132.868 121.894 132.868C121.474 132.868 121.15 133.192 121.15 133.612C121.15 134.032 121.474 134.356 121.894 134.356ZM129.011 140.212C128.963 137.86 125.147 138.712 125.147 137.152C125.147 136.624 125.627 136.24 126.431 136.24C127.307 136.24 127.811 136.72 127.859 137.38H128.951C128.879 136.096 127.919 135.316 126.467 135.316C125.003 135.316 124.055 136.144 124.055 137.152C124.055 139.6 127.943 138.748 127.943 140.212C127.943 140.752 127.463 141.184 126.599 141.184C125.675 141.184 125.111 140.704 125.051 140.068H123.923C123.995 141.268 125.075 142.108 126.611 142.108C128.063 142.108 129.011 141.292 129.011 140.212ZM130.793 140.2C130.793 141.52 131.453 142 132.617 142H133.601V141.076H132.797C132.125 141.076 131.885 140.848 131.885 140.2V136.324H133.601V135.424H131.885V133.768H130.793V135.424H129.941V136.324H130.793V140.2Z" fill="#1D242E"/>
<path d="M144.209 135.226L146.987 138.004L144.209 140.781C143.93 141.06 143.93 141.511 144.209 141.791C144.489 142.07 144.94 142.07 145.219 141.791L148.505 138.505C148.784 138.226 148.784 137.774 148.505 137.495L145.219 134.209C144.94 133.93 144.489 133.93 144.209 134.209C143.937 134.489 143.93 134.947 144.209 135.226Z" fill="#1D242E"/>
<path d="M148.209 135.226L150.987 138.004L148.209 140.781C147.93 141.06 147.93 141.511 148.209 141.791C148.489 142.07 148.94 142.07 149.219 141.791L152.505 138.505C152.784 138.226 152.784 137.774 152.505 137.495L149.219 134.209C148.94 133.93 148.489 133.93 148.209 134.209C147.937 134.489 147.93 134.947 148.209 135.226Z" fill="#1D242E"/>
<g clip-path="url(#clip0_62_2505)">
<path d="M118.833 25.2499H112.666V22.1666C112.666 20.4708 111.279 19.0833 109.583 19.0833H103.416C101.721 19.0833 100.333 20.4708 100.333 22.1666V25.2499H94.1663C92.4705 25.2499 91.083 26.6374 91.083 28.3333V46.8333C91.083 48.5291 92.4705 49.9166 94.1663 49.9166H118.833C120.529 49.9166 121.916 48.5291 121.916 46.8333V28.3333C121.916 26.6374 120.529 25.2499 118.833 25.2499ZM103.416 22.1666H109.583V25.2499H103.416V22.1666ZM118.833 46.8333H94.1663V28.3333H118.833V46.8333Z" fill="#03A9F5"/>
<path d="M108.041 31.4165H104.958V36.0415H100.333V39.1248H104.958V43.7498H108.041V39.1248H112.666V36.0415H108.041V31.4165Z" fill="#03A9F5"/>
</g>
<defs>
<clipPath id="clip0_62_2505">
<rect width="37" height="37" fill="white" transform="translate(88 16)"/>
</clipPath>
</defs>
</svg>
