<svg width="212" height="152" viewBox="0 0 212 152" fill="none" xmlns="http://www.w3.org/2000/svg">
<rect x="0.5" y="0.5" width="211" height="151" rx="3.5" fill="#F0483E" fill-opacity="0.3" stroke="#F0483E"/>
<path d="M0.5 4C0.5 2.067 2.067 0.5 4 0.5H208C209.933 0.5 211.5 2.067 211.5 4V124.5H0.5V4Z" fill="white" stroke="#F0483E"/>
<path d="M41.4055 104H43.0015V97.336L45.9835 104H47.0895L50.0575 97.336V104H51.6535V94.27H49.9455L46.5435 101.9L43.1275 94.27H41.4055V104ZM56.9992 97.504C58.1892 97.504 59.1272 98.26 59.1552 99.45H54.8852C55.0532 98.232 55.9212 97.504 56.9992 97.504ZM60.6112 101.704H58.8892C58.5952 102.306 58.0492 102.782 57.0692 102.782C55.8932 102.782 54.9832 102.012 54.8712 100.738H60.7652C60.8072 100.472 60.8212 100.22 60.8212 99.954C60.8212 97.686 59.2672 96.16 57.0692 96.16C54.7872 96.16 53.2192 97.714 53.2192 100.136C53.2192 102.558 54.8572 104.126 57.0692 104.126C58.9592 104.126 60.1772 103.048 60.6112 101.704ZM61.8598 100.108C61.8598 102.488 63.4698 104.126 65.4998 104.126C66.7598 104.126 67.6838 103.538 68.1738 102.838V104H69.7838V93.64H68.1738V97.364C67.5858 96.636 66.5218 96.16 65.5138 96.16C63.4698 96.16 61.8598 97.728 61.8598 100.108ZM68.1738 100.136C68.1738 101.802 67.0398 102.74 65.8358 102.74C64.6458 102.74 63.4978 101.774 63.4978 100.108C63.4978 98.442 64.6458 97.546 65.8358 97.546C67.0398 97.546 68.1738 98.484 68.1738 100.136ZM71.8801 104H73.4761V96.286H71.8801V104ZM72.6921 95.264C73.2521 95.264 73.7001 94.816 73.7001 94.242C73.7001 93.668 73.2521 93.22 72.6921 93.22C72.1181 93.22 71.6701 93.668 71.6701 94.242C71.6701 94.816 72.1181 95.264 72.6921 95.264ZM75.0395 100.136C75.0395 102.558 76.6075 104.126 78.8195 104.126C80.7095 104.126 81.9415 103.076 82.3755 101.564H80.6535C80.3595 102.362 79.7715 102.782 78.8195 102.782C77.5315 102.782 76.6775 101.83 76.6775 100.136C76.6775 98.456 77.5315 97.504 78.8195 97.504C79.7715 97.504 80.3875 97.98 80.6535 98.722H82.3755C81.9415 97.098 80.7095 96.16 78.8195 96.16C76.6075 96.16 75.0395 97.728 75.0395 100.136ZM83.966 104H85.562V96.286H83.966V104ZM84.778 95.264C85.338 95.264 85.786 94.816 85.786 94.242C85.786 93.668 85.338 93.22 84.778 93.22C84.204 93.22 83.756 93.668 83.756 94.242C83.756 94.816 84.204 95.264 84.778 95.264ZM93.1314 104H94.7134V99.45C94.7134 97.294 93.3554 96.16 91.5494 96.16C90.6254 96.16 89.7714 96.538 89.2534 97.168V96.286H87.6574V104H89.2534V99.688C89.2534 98.274 90.0234 97.546 91.1994 97.546C92.3614 97.546 93.1314 98.274 93.1314 99.688V104ZM99.9972 97.504C101.187 97.504 102.125 98.26 102.153 99.45H97.8832C98.0512 98.232 98.9192 97.504 99.9972 97.504ZM103.609 101.704H101.887C101.593 102.306 101.047 102.782 100.067 102.782C98.8912 102.782 97.9812 102.012 97.8692 100.738H103.763C103.805 100.472 103.819 100.22 103.819 99.954C103.819 97.686 102.265 96.16 100.067 96.16C97.7852 96.16 96.2172 97.714 96.2172 100.136C96.2172 102.558 97.8552 104.126 100.067 104.126C101.957 104.126 103.175 103.048 103.609 101.704ZM115.593 101.242C115.593 97.686 110.441 99.058 110.441 96.86C110.441 95.922 111.155 95.474 112.079 95.502C113.087 95.53 113.661 96.132 113.717 96.79H115.481C115.341 95.124 114.025 94.144 112.163 94.144C110.175 94.144 108.817 95.208 108.817 96.916C108.817 100.5 113.983 98.974 113.983 101.326C113.983 102.152 113.353 102.754 112.233 102.754C111.127 102.754 110.567 102.11 110.497 101.312H108.789C108.789 103.034 110.287 104.098 112.233 104.098C114.403 104.098 115.593 102.698 115.593 101.242ZM117.476 104H119.072V99.688C119.072 98.274 119.842 97.546 121.018 97.546C122.18 97.546 122.95 98.274 122.95 99.688V104H124.532V99.45C124.532 97.294 123.188 96.16 121.466 96.16C120.472 96.16 119.604 96.538 119.072 97.182V93.64H117.476V104ZM133.918 100.136C133.918 97.714 132.182 96.16 129.984 96.16C127.786 96.16 126.05 97.714 126.05 100.136C126.05 102.558 127.716 104.126 129.914 104.126C132.126 104.126 133.918 102.558 133.918 100.136ZM127.674 100.136C127.674 98.386 128.752 97.546 129.956 97.546C131.146 97.546 132.28 98.386 132.28 100.136C132.28 101.886 131.104 102.74 129.914 102.74C128.71 102.74 127.674 101.886 127.674 100.136ZM137.091 99.94C137.091 98.302 137.819 97.812 138.995 97.812H139.401V96.16C138.309 96.16 137.539 96.636 137.091 97.406V96.286H135.495V104H137.091V99.94ZM141.12 101.858C141.12 103.426 141.974 104 143.346 104H144.606V102.67H143.626C142.954 102.67 142.73 102.432 142.73 101.858V97.588H144.606V96.286H142.73V94.368H141.12V96.286H140.21V97.588H141.12V101.858ZM145.545 100.108C145.545 102.488 147.155 104.126 149.157 104.126C150.445 104.126 151.369 103.51 151.859 102.852V104H153.469V96.286H151.859V97.406C151.383 96.776 150.487 96.16 149.185 96.16C147.155 96.16 145.545 97.728 145.545 100.108ZM151.859 100.136C151.859 101.802 150.725 102.74 149.521 102.74C148.331 102.74 147.183 101.774 147.183 100.108C147.183 98.442 148.331 97.546 149.521 97.546C150.725 97.546 151.859 98.484 151.859 100.136ZM155.034 100.108C155.034 102.488 156.644 104.126 158.674 104.126C159.934 104.126 160.858 103.496 161.348 102.838V104.126C161.348 105.666 160.424 106.422 159.192 106.422C158.086 106.422 157.232 105.876 156.994 105.078H155.412C155.608 106.786 157.134 107.808 159.192 107.808C161.6 107.808 162.958 106.226 162.958 104.126V96.286H161.348V97.406C160.872 96.748 159.934 96.16 158.674 96.16C156.644 96.16 155.034 97.728 155.034 100.108ZM161.348 100.136C161.348 101.802 160.214 102.74 159.01 102.74C157.82 102.74 156.672 101.774 156.672 100.108C156.672 98.442 157.82 97.546 159.01 97.546C160.214 97.546 161.348 98.484 161.348 100.136ZM168.302 97.504C169.492 97.504 170.43 98.26 170.458 99.45H166.188C166.356 98.232 167.224 97.504 168.302 97.504ZM171.914 101.704H170.192C169.898 102.306 169.352 102.782 168.372 102.782C167.196 102.782 166.286 102.012 166.174 100.738H172.068C172.11 100.472 172.124 100.22 172.124 99.954C172.124 97.686 170.57 96.16 168.372 96.16C166.09 96.16 164.522 97.714 164.522 100.136C164.522 102.558 166.16 104.126 168.372 104.126C170.262 104.126 171.48 103.048 171.914 101.704Z" fill="#1D242E"/>
<path d="M97.1168 72.5C97.1168 76.82 98.5768 79.94 102.737 79.94C106.897 79.94 108.357 76.82 108.357 72.5C108.357 68.22 106.897 65.1 102.737 65.1C98.5768 65.1 97.1168 68.22 97.1168 72.5ZM104.997 72.5C104.997 74.82 104.757 76.74 102.737 76.74C100.717 76.74 100.477 74.82 100.477 72.5C100.477 70.26 100.717 68.3 102.737 68.3C104.757 68.3 104.997 70.26 104.997 72.5ZM111.784 80H115.344V65.4H109.804V68.58H111.784V80Z" fill="#1D242E"/>
<path d="M64.4352 136.096C64.4352 137.032 63.8952 137.704 62.6592 137.704H61.0512V134.536H62.6592C63.9072 134.536 64.4352 135.148 64.4352 136.096ZM59.9592 133.636V142H61.0512V138.58H62.3712L64.3632 142H65.6712L63.5712 138.496C64.9752 138.184 65.5632 137.164 65.5632 136.096C65.5632 134.728 64.6272 133.636 62.6592 133.636H59.9592ZM70.0559 136.24C71.1839 136.24 72.1439 136.948 72.1319 138.232H67.9799C68.0999 136.948 68.9879 136.24 70.0559 136.24ZM73.1279 139.972H71.9519C71.7119 140.68 71.0879 141.184 70.1039 141.184C68.9879 141.184 68.0519 140.452 67.9679 139.12H73.2239C73.2479 138.892 73.2599 138.7 73.2599 138.46C73.2599 136.66 72.0119 135.316 70.1039 135.316C68.1839 135.316 66.8519 136.624 66.8519 138.7C66.8519 140.788 68.2319 142.108 70.1039 142.108C71.7359 142.108 72.7919 141.172 73.1279 139.972ZM79.4293 140.212C79.3813 137.86 75.5653 138.712 75.5653 137.152C75.5653 136.624 76.0453 136.24 76.8493 136.24C77.7253 136.24 78.2293 136.72 78.2773 137.38H79.3693C79.2973 136.096 78.3373 135.316 76.8853 135.316C75.4213 135.316 74.4733 136.144 74.4733 137.152C74.4733 139.6 78.3613 138.748 78.3613 140.212C78.3613 140.752 77.8813 141.184 77.0173 141.184C76.0933 141.184 75.5293 140.704 75.4693 140.068H74.3413C74.4133 141.268 75.4933 142.108 77.0293 142.108C78.4813 142.108 79.4293 141.292 79.4293 140.212ZM87.2109 138.7C87.2109 136.624 85.7589 135.316 83.8869 135.316C82.0269 135.316 80.5629 136.624 80.5629 138.7C80.5629 140.788 81.9789 142.108 83.8389 142.108C85.7109 142.108 87.2109 140.788 87.2109 138.7ZM81.6789 138.7C81.6789 137.044 82.7229 136.264 83.8749 136.264C85.0029 136.264 86.0949 137.044 86.0949 138.7C86.0949 140.368 84.9789 141.148 83.8389 141.148C82.6989 141.148 81.6789 140.368 81.6789 138.7ZM88.6467 142H89.7387V133.12H88.6467V142ZM90.8198 135.424L93.3998 142H94.6718L97.2518 135.424H96.0878L94.0478 140.992L91.9958 135.424H90.8198ZM101.122 136.24C102.25 136.24 103.21 136.948 103.198 138.232H99.0463C99.1663 136.948 100.054 136.24 101.122 136.24ZM104.194 139.972H103.018C102.778 140.68 102.154 141.184 101.17 141.184C100.054 141.184 99.1183 140.452 99.0343 139.12H104.29C104.314 138.892 104.326 138.7 104.326 138.46C104.326 136.66 103.078 135.316 101.17 135.316C99.2503 135.316 97.9183 136.624 97.9183 138.7C97.9183 140.788 99.2983 142.108 101.17 142.108C102.802 142.108 103.858 141.172 104.194 139.972ZM114.451 133.624V140.272L110.059 133.624H108.967V142H110.059V135.34L114.451 142H115.543V133.624H114.451ZM123.644 138.7C123.644 136.624 122.192 135.316 120.32 135.316C118.46 135.316 116.996 136.624 116.996 138.7C116.996 140.788 118.412 142.108 120.272 142.108C122.144 142.108 123.644 140.788 123.644 138.7ZM118.112 138.7C118.112 137.044 119.156 136.264 120.308 136.264C121.436 136.264 122.528 137.044 122.528 138.7C122.528 140.368 121.412 141.148 120.272 141.148C119.132 141.148 118.112 140.368 118.112 138.7ZM126.364 142H127.492L129.076 136.78L130.66 142H131.788L133.84 135.424H132.76L131.272 140.956L129.676 135.424H128.56L126.928 140.944L125.416 135.424H124.3L126.364 142Z" fill="#1D242E"/>
<path d="M144.209 135.226L146.987 138.004L144.209 140.781C143.93 141.06 143.93 141.511 144.209 141.791C144.489 142.07 144.94 142.07 145.219 141.791L148.505 138.505C148.784 138.226 148.784 137.774 148.505 137.495L145.219 134.209C144.94 133.93 144.489 133.93 144.209 134.209C143.937 134.489 143.93 134.947 144.209 135.226Z" fill="#1D242E"/>
<path d="M148.209 135.226L150.987 138.004L148.209 140.781C147.93 141.06 147.93 141.511 148.209 141.791C148.489 142.07 148.94 142.07 149.219 141.791L152.505 138.505C152.784 138.226 152.784 137.774 152.505 137.495L149.219 134.209C148.94 133.93 148.489 133.93 148.209 134.209C147.937 134.489 147.93 134.947 148.209 135.226Z" fill="#1D242E"/>
<path d="M106.5 25.2345L118.109 45.2916H94.8911L106.5 25.2345ZM106.5 19.0833L89.5415 48.3749H123.458L106.5 19.0833ZM108.042 40.6666H104.958V43.7499H108.042V40.6666ZM108.042 31.4166H104.958V37.5833H108.042V31.4166Z" fill="#F0483E"/>
</svg>
